<svg width="106" height="102" fill="none" xmlns="http://www.w3.org/2000/svg"><path d="M68.386 67.138c-13.71 13.286-27.894 23.456-39.731 29.165-5.921 2.855-11.229 4.582-15.58 5.039-4.36.458-7.669-.365-9.724-2.486-2.055-2.12-2.773-5.454-2.179-9.796.594-4.335 2.486-9.586 5.527-15.414 6.078-11.652 16.688-25.51 30.398-38.796 13.71-13.286 27.894-23.456 39.731-29.164C82.75 2.83 88.057 1.103 92.408.646c4.36-.457 7.668.365 9.724 2.486 2.055 2.12 2.773 5.454 2.179 9.797-.594 4.335-2.486 9.585-5.527 15.414-6.078 11.651-16.688 25.51-30.398 38.795Z" stroke="#A8C5D6" stroke-opacity=".25"/></svg>