<svg width="106" height="102" viewBox="0 0 106 102" fill="none" xmlns="http://www.w3.org/2000/svg">
<path d="M68.3859 67.138C54.6758 80.424 40.4915 90.5938 28.6547 96.3027C22.7337 99.1584 17.4262 100.885 13.0747 101.342C8.71559 101.8 5.40648 100.977 3.35144 98.8562C1.2964 96.7355 0.577971 93.4022 1.17234 89.0597C1.76568 84.7246 3.65829 79.474 6.69855 73.6457C12.7765 61.994 23.3869 48.1363 37.0971 34.8503C50.8072 21.5643 64.9914 11.3945 76.8283 5.68558C82.7493 2.82992 88.0567 1.10321 92.4083 0.646342C96.7674 0.188693 100.076 1.01149 102.132 3.13214C104.187 5.25279 104.905 8.58611 104.311 12.9286C103.717 17.2637 101.825 22.5143 98.7844 28.3426C92.7065 39.9943 82.096 53.8521 68.3859 67.138Z" stroke="#A8C5D6" stroke-opacity="0.25"></path>
</svg>
