<svg width="208" height="203" viewBox="0 0 208 203" fill="none" xmlns="http://www.w3.org/2000/svg">
<path d="M141.185 139.603C114.656 165.31 86.4448 184.222 62.2935 194.026C50.2166 198.929 39.1794 201.544 29.8894 201.61C20.6012 201.675 13.1058 199.194 8.02971 193.956C2.95364 188.718 0.708972 181.148 1.06635 171.867C1.4238 162.583 4.3847 151.634 9.6644 139.717C20.2227 115.885 40.0111 88.2817 66.5392 62.5744C93.0673 36.867 121.279 17.9555 145.43 8.15113C157.507 3.24842 168.544 0.632974 177.834 0.567356C187.123 0.50175 194.618 2.98312 199.694 8.22124C204.77 13.4594 207.015 21.029 206.657 30.3106C206.3 39.5939 203.339 50.5435 198.059 62.4604C187.501 86.2918 167.713 113.895 141.185 139.603Z" stroke="#A8C5D6"></path>
</svg>
