<svg width="208" height="203" fill="none" xmlns="http://www.w3.org/2000/svg"><path d="M141.185 139.603c-26.529 25.707-54.74 44.619-78.892 54.423-12.076 4.903-23.114 7.518-32.404 7.584-9.288.065-16.783-2.416-21.86-7.654-5.075-5.238-7.32-12.808-6.963-22.089.358-9.284 3.319-20.233 8.598-32.15 10.559-23.832 30.347-51.435 56.875-77.143 26.528-25.707 54.74-44.618 78.891-54.423C157.507 3.248 168.544.633 177.834.567c9.289-.065 16.784 2.416 21.86 7.654 5.076 5.238 7.321 12.808 6.963 22.09-.357 9.283-3.318 20.233-8.598 32.15-10.558 23.83-30.346 51.434-56.874 77.142Z" stroke="#A8C5D6"/></svg>